<?xml version="1.0" standalone="no"?><!DOCTYPE svg PUBLIC "-//W3C//DTD SVG 1.1//EN" "http://www.w3.org/Graphics/SVG/1.1/DTD/svg11.dtd"><svg t="1651104450537" class="icon" viewBox="0 0 1024 1024" version="1.1" xmlns="http://www.w3.org/2000/svg" p-id="2919" xmlns:xlink="http://www.w3.org/1999/xlink" width="128" height="128"><defs><style type="text/css">@font-face { font-family: feedback-iconfont; src: url("//at.alicdn.com/t/font_1031158_u69w8yhxdu.woff2?t=1630033759944") format("woff2"), url("//at.alicdn.com/t/font_1031158_u69w8yhxdu.woff?t=1630033759944") format("woff"), url("//at.alicdn.com/t/font_1031158_u69w8yhxdu.ttf?t=1630033759944") format("truetype"); }
</style></defs><path d="M704.77913 82.365217H288.50087c-31.610435 0-57.433043 25.822609-57.433044 57.433044v744.403478c0 31.610435 25.822609 57.433043 57.433044 57.433044h545.391304c31.610435 0 57.433043-25.822609 57.433043-57.433044V268.911304l-186.546087-186.546087z" fill="#E1F9F7" p-id="2920"></path><path d="M704.77913 211.478261c0 31.610435 25.822609 57.433043 57.433044 57.433043h129.113043l-186.546087-186.546087v129.113044z" fill="#1AD6C4" p-id="2921"></path><path d="M501.76 833.892174H164.285217c-17.363478 0-31.610435-13.356522-31.610434-29.829565V658.921739c0-16.473043 14.246957-29.829565 31.610434-29.829565h337.029566c17.363478 0 31.610435 13.356522 31.610434 29.829565v144.695652c0.445217 16.918261-13.801739 30.274783-31.165217 30.274783z" fill="#05C6B7" p-id="2922"></path><path d="M228.396522 800.50087H200.347826v-27.603479h28.493913v27.603479zM292.953043 707.005217h44.966957v87.707826c0 28.493913-15.582609 42.74087-46.747826 42.74087-19.589565 0.445217-35.172174-4.897391-46.302609-16.027826V801.391304c11.575652 12.02087 24.041739 17.808696 37.398261 17.808696 19.144348 0.445217 28.048696-7.123478 27.158261-22.26087h-16.473044c-33.836522 0.445217-50.754783-13.801739-50.309565-42.740869 0-31.610435 16.918261-47.193043 50.309565-47.193044zM298.295652 779.130435h11.130435v-53.426087h-10.685217c-19.144348-0.445217-28.048696 9.349565-27.603479 28.93913 0 16.473043 8.904348 24.486957 27.158261 24.486957zM386.893913 695.429565h-28.493913V672.278261h28.493913v23.151304z m0 104.18087h-28.493913v-90.379131h28.493913v90.379131zM465.697391 708.34087v17.808695h-20.034782v73.46087h-28.493913v-73.46087h-14.692174v-17.808695h14.692174v-12.02087c-0.445217-22.26087 10.24-33.391304 32.500869-32.946087h25.377392v18.253913h-15.582609c-9.794783-0.445217-14.692174 4.452174-14.246957 14.246957v12.466087h20.48z" fill="#FFFFFF" p-id="2923"></path><path d="M475.046957 356.61913c0 43.186087 34.726957 77.913043 77.913043 77.913044s77.913043-34.726957 77.913043-77.913044c0-28.048696-14.692174-53.426087-39.17913-67.673043-24.041739-13.801739-53.871304-13.801739-77.913043 0-24.041739 14.246957-38.733913 40.069565-38.733913 67.673043z m0 0" fill="#BDF9F0" p-id="2924"></path><path d="M397.133913 356.61913c0 43.186087 34.726957 77.913043 77.913044 77.913044s77.913043-34.726957 77.913043-77.913044-34.726957-77.913043-77.913043-77.913043-77.913043 35.172174-77.913044 77.913043z m0 0" fill="#8BF2E1" p-id="2925"></path><path d="M319.22087 356.61913c0 28.048696 14.692174 53.426087 39.17913 67.673044 24.041739 13.801739 53.871304 13.801739 77.913043 0s38.733913-39.624348 38.733914-67.673044c0-43.186087-34.726957-77.913043-77.913044-77.913043s-78.358261 35.172174-77.913043 77.913043z m0 0" fill="#35DBC7" p-id="2926"></path></svg>