<?xml version="1.0" standalone="no"?><!DOCTYPE svg PUBLIC "-//W3C//DTD SVG 1.1//EN" "http://www.w3.org/Graphics/SVG/1.1/DTD/svg11.dtd"><svg t="1652582344518" class="icon" viewBox="0 0 1024 1024" version="1.1" xmlns="http://www.w3.org/2000/svg" p-id="1687" xmlns:xlink="http://www.w3.org/1999/xlink" width="128" height="128"><defs><style type="text/css">@font-face { font-family: feedback-iconfont; src: url("//at.alicdn.com/t/font_1031158_u69w8yhxdu.woff2?t=1630033759944") format("woff2"), url("//at.alicdn.com/t/font_1031158_u69w8yhxdu.woff?t=1630033759944") format("woff"), url("//at.alicdn.com/t/font_1031158_u69w8yhxdu.ttf?t=1630033759944") format("truetype"); }
</style></defs><path d="M704.77913 82.365217H288.50087c-31.610435 0-57.433043 25.822609-57.433044 57.433044v744.403478c0 31.610435 25.822609 57.433043 57.433044 57.433044h545.391304c31.610435 0 57.433043-25.822609 57.433043-57.433044V268.911304l-186.546087-186.546087z" fill="#F9F3DC" p-id="1688"></path><path d="M704.77913 211.478261c0 31.610435 25.822609 57.433043 57.433044 57.433043h129.113043l-186.546087-186.546087v129.113044z" fill="#EFD66C" p-id="1689"></path><path d="M501.76 833.892174H164.285217c-17.363478 0-31.610435-13.356522-31.610434-29.829565V658.921739c0-16.473043 14.246957-29.829565 31.610434-29.829565h337.029566c17.363478 0 31.610435 13.356522 31.610434 29.829565v144.695652c0.445217 16.918261-13.801739 30.274783-31.165217 30.274783z" fill="#EFCB35" p-id="1690"></path><path d="M192.77913 800.50087v-130.003479h129.113044v105.961739c0.890435 16.918261-6.678261 24.932174-23.151304 24.04174H192.77913z m105.96174-113.975653H216.375652v98.838261h73.46087c6.233043 0.445217 9.349565-2.671304 8.904348-8.904348v-89.933913z m-80.139131 56.542609v-12.466087c8.45913-1.335652 16.027826-2.671304 21.815652-4.897391-4.897391-3.561739-9.349565-7.568696-13.801739-12.02087-2.226087 0.890435-5.342609 1.335652-8.45913 1.335652v-10.685217c6.678261-2.226087 11.575652-7.568696 14.692174-15.582609h20.48c-0.445217 1.335652-0.890435 2.226087-1.78087 3.561739h41.850435v12.911305c-5.342609 8.45913-11.130435 15.137391-18.253913 20.034782 5.787826 1.78087 12.466087 3.116522 20.034782 4.006957v12.466087c-15.137391-1.335652-27.603478-3.561739-37.843478-7.568696-4.897391 1.78087-10.24 3.561739-16.027826 4.897392 15.582609 0.445217 29.829565 2.226087 43.186087 5.787826v16.027826c-16.027826-4.897391-34.281739-8.013913-54.316522-9.349565v-10.24c-1.335652 0.445217-3.116522 0.445217-5.787826 0.445217-1.78087 1.335652-4.006957 1.335652-5.787826 1.335652z m71.68 42.295652c-18.69913-5.787826-40.96-10.24-67.227826-12.911304v-14.692174c22.26087 1.335652 44.966957 4.452174 67.227826 9.349565v18.253913z m-45.857391-79.248695c-0.445217 0.445217-0.890435 0.890435-1.78087 1.335652-1.78087 1.335652-2.671304 1.78087-3.561739 2.226087h8.904348c3.561739 3.116522 7.123478 5.787826 10.685217 7.568695 4.452174-3.116522 8.45913-6.678261 12.02087-11.130434h-26.267826zM457.683478 800.055652h-26.713043v-46.747826H385.558261v5.342609c1.335652 22.706087-12.02087 38.288696-39.179131 46.302608v-16.027826c8.013913-4.452174 11.575652-12.02087 11.130435-23.151304v-93.495652h27.603478v30.72h34.726957v-35.617391H445.217391v35.617391h30.274783v17.808696H385.558261v14.692173h72.125217v64.556522z" fill="#FFFFFF" p-id="1691"></path><path d="M371.756522 507.993043c-19.589565 0-32.946087-20.034783-25.377392-37.843478 19.589565-46.747826 55.652174-120.208696 89.043479-120.208695 49.41913 0 69.008696 79.248696 69.008695 79.248695s79.248696-138.462609 128.667826-138.462608c35.617391 0 105.071304 113.530435 140.688696 176.306086 10.24 18.253913-2.671304 40.96-24.041739 40.96H371.756522z" fill="#EFD66C" p-id="1692"></path><path d="M412.271304 239.081739m-40.069565 0a40.069565 40.069565 0 1 0 80.139131 0 40.069565 40.069565 0 1 0-80.139131 0Z" fill="#EFD66C" p-id="1693"></path></svg>