<?xml version="1.0" standalone="no"?><!DOCTYPE svg PUBLIC "-//W3C//DTD SVG 1.1//EN" "http://www.w3.org/Graphics/SVG/1.1/DTD/svg11.dtd"><svg t="1651104447819" class="icon" viewBox="0 0 1024 1024" version="1.1" xmlns="http://www.w3.org/2000/svg" p-id="2769" xmlns:xlink="http://www.w3.org/1999/xlink" width="128" height="128"><defs><style type="text/css">@font-face { font-family: feedback-iconfont; src: url("//at.alicdn.com/t/font_1031158_u69w8yhxdu.woff2?t=1630033759944") format("woff2"), url("//at.alicdn.com/t/font_1031158_u69w8yhxdu.woff?t=1630033759944") format("woff"), url("//at.alicdn.com/t/font_1031158_u69w8yhxdu.ttf?t=1630033759944") format("truetype"); }
</style></defs><path d="M704.77913 82.365217H288.50087c-31.610435 0-57.433043 25.822609-57.433044 57.433044v744.403478c0 31.610435 25.822609 57.433043 57.433044 57.433044h545.391304c31.610435 0 57.433043-25.822609 57.433043-57.433044V268.911304l-186.546087-186.546087z" fill="#E1E8F9" p-id="2770"></path><path d="M704.77913 211.478261c0 31.610435 25.822609 57.433043 57.433044 57.433043h129.113043l-186.546087-186.546087v129.113044z" fill="#3D73E0" p-id="2771"></path><path d="M501.76 833.892174H164.285217c-17.363478 0-31.610435-13.356522-31.610434-29.829565V658.921739c0-16.473043 14.246957-29.829565 31.610434-29.829565h337.029566c17.363478 0 31.610435 13.356522 31.610434 29.829565v144.695652c0.445217 16.918261-13.801739 30.274783-31.165217 30.274783z" fill="#0437B5" p-id="2772"></path><path d="M182.53913 800.50087h-28.493913v-27.603479H182.53913v27.603479zM244.869565 801.836522h-16.027826v34.726956H200.347826v-129.558261h44.521739c34.281739-0.445217 51.2 15.582609 50.754783 47.193044 0.445217 32.055652-16.473043 48.083478-50.754783 47.638261z m-5.342608-77.022609h-10.685218v59.65913h10.24c19.144348 0.445217 28.93913-9.794783 28.493913-30.72-0.445217-19.144348-9.349565-28.93913-28.048695-28.93913zM309.426087 787.144348v-17.363478c11.575652 8.904348 23.596522 13.801739 36.062609 14.692173 16.473043 1.335652 24.932174-2.226087 25.377391-10.24 0.890435-5.342609-5.342609-9.349565-17.808696-12.020869-7.123478-1.335652-13.801739-2.671304-20.034782-4.006957-13.801739-4.452174-20.925217-12.466087-21.370435-24.041739 0.890435-18.253913 13.801739-27.603478 39.624348-27.603478 24.041739-0.890435 39.17913 8.45913 44.966956 27.158261h-27.603478c-2.226087-5.787826-7.568696-8.904348-16.027826-8.904348-8.013913 0.445217-12.02087 3.116522-12.466087 8.45913-0.445217 4.452174 3.561739 7.123478 12.466087 8.904348l21.370435 5.342609c17.363478 4.452174 25.822609 13.801739 25.377391 27.603478 0.445217 17.363478-13.356522 26.267826-40.96 26.713044-19.589565 0.445217-36.062609-4.452174-48.973913-14.692174zM463.026087 706.56h16.473043V663.373913H507.547826v138.462609H463.026087c-34.281739 0.445217-51.2-15.137391-50.754783-46.747826 0-32.50087 16.918261-48.528696 50.754783-48.528696z m5.342609 77.913043h11.130434v-59.65913h-10.685217c-19.144348-0.445217-28.048696 9.794783-27.603478 30.72 0 19.589565 8.904348 28.93913 27.158261 28.93913z" fill="#FFFFFF" p-id="2773"></path><path d="M387.33913 396.243478s-37.398261 20.48-38.733913 52.090435c-1.335652 32.055652-32.055652 55.206957-41.850434 57.878261-10.24 3.116522 148.257391 9.349565 136.681739-58.768696L387.33913 396.243478z m69.899131 21.815652c5.787826 5.787826 7.123478 13.356522 3.116522 17.363479-4.006957 4.006957-12.02087 2.671304-17.808696-2.671305L404.702609 396.243478c-5.787826-5.787826-7.123478-13.356522-3.116522-17.363478 4.006957-4.006957 12.02087-2.671304 17.808696 2.671304l37.843478 36.507826z m132.229565-191.443478c-10.24-7.123478-19.589565-0.890435-23.596522 1.78087-12.02087 8.013913-97.502609 91.269565-134.900869 130.003478-4.452174 6.233043-7.568696 10.685217 14.246956 32.946087 18.69913 18.69913 27.158261 17.363478 36.507826 9.349565 15.582609-15.582609 81.92-108.187826 106.406957-143.805217 4.452174-6.233043 12.466087-23.151304 1.335652-30.274783z m0 0" fill="#3D73E0" p-id="2774"></path></svg>