<?xml version="1.0" standalone="no"?><!DOCTYPE svg PUBLIC "-//W3C//DTD SVG 1.1//EN" "http://www.w3.org/Graphics/SVG/1.1/DTD/svg11.dtd"><svg t="1651104488836" class="icon" viewBox="0 0 1024 1024" version="1.1" xmlns="http://www.w3.org/2000/svg" p-id="4565" xmlns:xlink="http://www.w3.org/1999/xlink" width="128" height="128"><defs><style type="text/css">@font-face { font-family: feedback-iconfont; src: url("//at.alicdn.com/t/font_1031158_u69w8yhxdu.woff2?t=1630033759944") format("woff2"), url("//at.alicdn.com/t/font_1031158_u69w8yhxdu.woff?t=1630033759944") format("woff"), url("//at.alicdn.com/t/font_1031158_u69w8yhxdu.ttf?t=1630033759944") format("truetype"); }
</style></defs><path d="M704.77913 82.365217H288.50087c-31.610435 0-57.433043 25.822609-57.433044 57.433044v744.403478c0 31.610435 25.822609 57.433043 57.433044 57.433044h545.391304c31.610435 0 57.433043-25.822609 57.433043-57.433044V268.911304l-186.546087-186.546087z" fill="#F9E1DC" p-id="4566"></path><path d="M704.77913 211.478261c0 31.610435 25.822609 57.433043 57.433044 57.433043h129.113043l-186.546087-186.546087v129.113044z" fill="#FC8172" p-id="4567"></path><path d="M501.76 833.892174H164.285217c-17.363478 0-31.610435-13.356522-31.610434-29.829565V658.921739c0-16.473043 14.246957-29.829565 31.610434-29.829565h337.029566c17.363478 0 31.610435 13.356522 31.610434 29.829565v144.695652c0.445217 16.918261-13.801739 30.274783-31.165217 30.274783z" fill="#F46240" p-id="4568"></path><path d="M211.033043 767.554783v30.274782h-28.048695v-30.274782h28.048695zM296.514783 715.01913h-32.50087v-6.67826c0-5.787826-0.445217-9.349565-0.890435-10.685218s-2.226087-2.226087-4.897391-2.226087c-2.226087 0-3.561739 0.890435-4.452174 2.226087s-1.335652 3.561739-1.335652 6.233044c0 3.561739 0.445217 6.233043 0.890435 8.013913s2.226087 3.561739 4.452174 5.787826 8.013913 4.897391 16.027826 8.904348c10.685217 5.342609 17.808696 10.24 20.925217 14.692174s4.897391 11.130435 4.897391 20.034782c0 9.794783-1.335652 17.363478-4.006956 22.26087s-6.678261 8.904348-12.911305 11.575652-13.356522 4.006957-21.815652 4.006956c-9.349565 0-17.363478-1.335652-24.041739-4.452174s-11.130435-6.678261-13.801739-12.020869-3.561739-12.466087-3.561739-22.706087v-5.787826h32.500869v7.568696c0 6.678261 0.445217 10.685217 1.335653 12.911304s2.226087 3.116522 4.897391 3.116522c2.671304 0 4.452174-0.445217 5.342609-1.78087s1.335652-4.006957 1.335652-8.45913c0-5.787826-0.890435-9.349565-2.226087-10.685218-1.335652-1.335652-8.45913-5.787826-21.370435-12.911304-10.685217-6.233043-17.363478-11.575652-20.034783-16.473044s-3.561739-10.685217-3.561739-17.808695c0-9.794783 1.335652-16.918261 4.006957-21.370435s6.678261-8.013913 12.911304-10.685217 13.356522-3.561739 21.370435-3.56174c8.013913 0 14.692174 0.890435 20.48 3.116522s9.794783 4.897391 12.911304 8.013913 4.897391 6.233043 5.342609 9.349565 0.890435 7.123478 0.890435 13.356522v7.123478zM428.29913 676.730435l-14.692173 121.09913h-40.069566c-2.226087-14.692174-4.897391-34.281739-7.568695-58.323478-0.890435 10.685217-2.226087 21.370435-4.006957 32.055652l-4.006956 26.267826h-40.069566L301.857391 676.730435H333.913043c0.445217 3.116522 3.116522 26.267826 8.013914 69.453913 0.445217-4.452174 3.116522-27.603478 8.45913-69.453913h30.72l7.568696 69.453913c1.335652-20.48 4.006957-43.186087 8.45913-69.453913h31.165217zM485.286957 650.017391v18.699131c-7.568696 0-12.02087 0.445217-13.356522 0.890435s-2.226087 2.671304-2.226087 5.787826v4.006956H485.286957v19.144348h-8.904348v99.283478h-36.953044v-99.283478H431.86087v-19.144348h7.568695c0-8.013913 0.445217-13.356522 0.890435-16.027826s1.78087-4.897391 4.006957-7.123478 5.342609-3.561739 8.904347-4.897392 9.794783-1.78087 18.253913-1.780869H485.286957z" fill="#FFFFFF" p-id="4569"></path><path d="M544.50087 283.603478c8.013913-2.671304 16.473043-4.006957 24.932173-4.006956V223.053913c-38.288696-1.335652-74.796522 16.027826-97.947826 46.302609-9.794783 12.466087-18.253913 26.267826-24.486956 40.96l-18.253913 44.966956c-4.452174 13.356522-10.24 27.603478-16.473044 40.514783-4.452174 10.685217-10.24 20.48-17.363478 30.274782-5.787826 8.013913-13.356522 14.246957-22.260869 18.253914-9.794783 4.452174-20.48 7.123478-31.165218 7.123478v56.987826c38.288696 1.335652 74.351304-16.027826 97.947826-46.302609 7.568696-10.24 14.246957-20.925217 20.034783-32.500869l15.582609-36.062609h65.892173V337.474783h-43.186087c3.116522-8.45913 8.013913-16.473043 12.911305-24.486957 4.006957-7.123478 8.904348-12.466087 14.692174-17.808696 5.787826-5.342609 12.02087-9.349565 19.144348-11.575652z m0 0" fill="#FC8172" p-id="4570"></path></svg>