<?xml version="1.0" standalone="no"?><!DOCTYPE svg PUBLIC "-//W3C//DTD SVG 1.1//EN" "http://www.w3.org/Graphics/SVG/1.1/DTD/svg11.dtd"><svg t="1651104465082" class="icon" viewBox="0 0 1024 1024" version="1.1" xmlns="http://www.w3.org/2000/svg" p-id="3669" xmlns:xlink="http://www.w3.org/1999/xlink" width="128" height="128"><defs><style type="text/css">@font-face { font-family: feedback-iconfont; src: url("//at.alicdn.com/t/font_1031158_u69w8yhxdu.woff2?t=1630033759944") format("woff2"), url("//at.alicdn.com/t/font_1031158_u69w8yhxdu.woff?t=1630033759944") format("woff"), url("//at.alicdn.com/t/font_1031158_u69w8yhxdu.ttf?t=1630033759944") format("truetype"); }
</style></defs><path d="M704.77913 82.365217H288.50087c-31.610435 0-57.433043 25.822609-57.433044 57.433044v744.403478c0 31.610435 25.822609 57.433043 57.433044 57.433044h545.391304c31.610435 0 57.433043-25.822609 57.433043-57.433044V268.911304l-186.546087-186.546087z" fill="#F7E2E2" p-id="3670"></path><path d="M704.77913 211.478261c0 31.610435 25.822609 57.433043 57.433044 57.433043h129.113043l-186.546087-186.546087v129.113044z" fill="#F49292" p-id="3671"></path><path d="M501.76 833.892174H164.285217c-17.363478 0-31.610435-13.356522-31.610434-29.829565V658.921739c0-16.473043 14.246957-29.829565 31.610434-29.829565h337.029566c17.363478 0 31.610435 13.356522 31.610434 29.829565v144.695652c0.445217 16.918261-13.801739 30.274783-31.165217 30.274783z" fill="#F47F7F" p-id="3672"></path><path d="M233.293913 767.554783v30.274782h-28.048696v-30.274782h28.048696zM276.034783 723.478261h-34.726957v-8.013913c0-9.349565 0.890435-16.473043 3.116522-21.815652s6.678261-9.349565 12.911304-13.356522 15.137391-5.787826 25.377391-5.787826c12.466087 0 21.815652 2.226087 28.048696 6.678261s10.24 9.794783 11.575652 16.473043 1.78087 19.589565 1.78087 39.624348v60.994783h-36.062609v-10.685218c-2.226087 4.452174-5.342609 7.568696-8.904348 9.794783-3.561739 2.226087-8.013913 3.116522-12.911304 3.116522-6.233043 0-12.466087-1.78087-17.808696-5.342609S240.417391 783.582609 240.417391 771.561739v-9.794782c0-8.904348 1.335652-15.137391 4.452174-18.699131s9.794783-7.123478 21.370435-11.575652c12.02087-4.897391 18.69913-8.013913 19.589565-9.794783s1.335652-4.897391 1.335652-10.24c0-6.233043-0.445217-10.24-1.335652-12.466087s-2.671304-2.671304-4.897391-2.671304c-2.671304 0-4.006957 0.890435-4.452174 2.226087s-0.890435 5.787826-0.890435 12.466087v12.466087z m11.575652 16.473043c-5.787826 4.452174-9.349565 8.013913-10.24 10.685218s-1.335652 7.123478-1.335652 12.466087c0 6.233043 0.445217 10.24 1.335652 12.020869s2.226087 2.671304 4.897391 2.671305c2.226087 0 4.006957-0.890435 4.452174-2.226087s0.890435-5.342609 0.890435-11.130435v-24.486957zM413.606957 676.730435L396.243478 797.829565H348.16L329.906087 676.730435h32.946087l10.24 88.598261c0.890435-6.678261 2.226087-22.26087 4.006956-47.638261 0.890435-14.246957 2.226087-27.603478 3.56174-40.96h32.946087zM457.238261 650.017391v19.144348h-37.843478V650.017391h37.843478z m0 26.713044v121.09913h-37.843478V676.730435h37.843478z" fill="#FFFFFF" p-id="3673"></path><path d="M370.42087 222.163478h258.226087v280.486957h-258.226087z" fill="#F49292" p-id="3674"></path><path d="M428.29913 333.467826h142.469566v57.878261h-142.469566zM428.29913 418.05913h142.469566v57.878261h-142.469566zM428.29913 248.876522h142.469566v57.878261h-142.469566z" fill="#F7E2E2" p-id="3675"></path></svg>