<?xml version="1.0" standalone="no"?><!DOCTYPE svg PUBLIC "-//W3C//DTD SVG 1.1//EN" "http://www.w3.org/Graphics/SVG/1.1/DTD/svg11.dtd"><svg t="1651104445010" class="icon" viewBox="0 0 1024 1024" version="1.1" xmlns="http://www.w3.org/2000/svg" p-id="2618" xmlns:xlink="http://www.w3.org/1999/xlink" width="128" height="128"><defs><style type="text/css">@font-face { font-family: feedback-iconfont; src: url("//at.alicdn.com/t/font_1031158_u69w8yhxdu.woff2?t=1630033759944") format("woff2"), url("//at.alicdn.com/t/font_1031158_u69w8yhxdu.woff?t=1630033759944") format("woff"), url("//at.alicdn.com/t/font_1031158_u69w8yhxdu.ttf?t=1630033759944") format("truetype"); }
</style></defs><path d="M704.77913 82.365217H288.50087c-31.610435 0-57.433043 25.822609-57.433044 57.433044v744.403478c0 31.610435 25.822609 57.433043 57.433044 57.433044h545.391304c31.610435 0 57.433043-25.822609 57.433043-57.433044V268.911304l-186.546087-186.546087z" fill="#FCEFE3" p-id="2619"></path><path d="M704.77913 211.478261c0 31.610435 25.822609 57.433043 57.433044 57.433043h129.113043l-186.546087-186.546087v129.113044z" fill="#F9B582" p-id="2620"></path><path d="M501.76 833.892174H164.285217c-17.363478 0-31.610435-13.356522-31.610434-29.829565V658.921739c0-16.473043 14.246957-29.829565 31.610434-29.829565h337.029566c17.363478 0 31.610435 13.356522 31.610434 29.829565v144.695652c0.445217 16.918261-13.801739 30.274783-31.165217 30.274783z" fill="#F49D47" p-id="2621"></path><path d="M221.273043 767.554783v30.274782h-28.048695v-30.274782h28.048695zM268.911304 676.730435l-0.445217 10.685217c3.116522-4.452174 7.123478-7.568696 10.685217-9.794782 4.006957-2.226087 8.45913-3.116522 12.911305-3.116522 5.787826 0 10.685217 1.335652 14.692174 4.452174s6.678261 6.678261 8.013913 10.685217 1.335652 10.685217 1.335652 20.48V761.321739c0 11.130435-0.445217 18.69913-1.78087 23.596522s-4.006957 8.45913-8.013913 11.130435-8.904348 4.006957-14.692174 4.006956c-4.452174 0-8.904348-0.890435-12.911304-3.116522s-7.568696-5.342609-10.685217-9.349565v27.603478h-36.953044V676.730435h37.843478z m10.24 35.172174c0-7.568696-0.445217-12.02087-0.890434-13.801739s-2.226087-2.226087-4.452174-2.226087-4.006957 0.890435-4.897392 2.671304-0.890435 6.233043-0.890434 13.356522v50.309565c0 7.123478 0.445217 12.02087 0.890434 13.801739s2.226087 2.671304 4.897392 2.671304c2.226087 0 4.006957-0.890435 4.452174-2.671304s0.890435-5.787826 0.890434-12.02087v-52.090434zM365.968696 676.730435l-0.445218 10.685217c3.116522-4.452174 7.123478-7.568696 10.685218-9.794782 4.006957-2.226087 8.45913-3.116522 12.911304-3.116522 5.787826 0 10.685217 1.335652 14.692174 4.452174s6.678261 6.678261 8.013913 10.685217 1.335652 10.685217 1.335652 20.48V761.321739c0 11.130435-0.445217 18.69913-1.780869 23.596522s-4.006957 8.45913-8.013913 11.130435-8.904348 4.006957-14.692174 4.006956c-4.452174 0-8.904348-0.890435-12.911305-3.116522s-7.568696-5.342609-10.685217-9.349565v27.603478h-36.953044V676.730435h37.843479z m10.24 35.172174c0-7.568696-0.445217-12.02087-0.890435-13.801739s-2.226087-2.226087-4.452174-2.226087-4.006957 0.890435-4.897391 2.671304-0.890435 6.233043-0.890435 13.356522v50.309565c0 7.123478 0.445217 12.02087 0.890435 13.801739s2.226087 2.671304 4.897391 2.671304c2.226087 0 4.006957-0.890435 4.452174-2.671304s0.890435-5.787826 0.890435-12.02087v-52.090434zM464.361739 660.257391v19.144348h9.794783v19.144348h-9.794783v65.001739c0 8.013913 0.445217 12.466087 1.335652 13.356522s4.452174 1.335652 10.24 1.335652v19.589565h-14.692174c-8.45913 0-14.246957-0.445217-17.808695-0.890435s-6.678261-2.226087-9.349565-4.897391-4.452174-5.342609-4.897392-8.45913-0.890435-11.130435-0.890435-23.151305V698.991304h-8.013913v-19.144347H427.408696v-19.144348h36.953043z" fill="#FFFFFF" p-id="2622"></path><path d="M479.053913 260.006957c-67.227826 0-121.989565 54.761739-121.989565 121.989565 0 67.227826 54.761739 121.989565 121.989565 121.989565 67.227826 0 121.989565-54.761739 121.989565-121.989565H479.053913V260.006957z m0 0" fill="#F9B582" p-id="2623"></path><path d="M519.123478 219.046957v121.989565H641.113043c0-67.227826-54.761739-121.989565-121.989565-121.989565z m0 0" fill="#F9B582" p-id="2624"></path></svg>