<?xml version="1.0" standalone="no"?><!DOCTYPE svg PUBLIC "-//W3C//DTD SVG 1.1//EN" "http://www.w3.org/Graphics/SVG/1.1/DTD/svg11.dtd"><svg t="1651104475729" class="icon" viewBox="0 0 1024 1024" version="1.1" xmlns="http://www.w3.org/2000/svg" p-id="3967" xmlns:xlink="http://www.w3.org/1999/xlink" width="128" height="128"><defs><style type="text/css">@font-face { font-family: feedback-iconfont; src: url("//at.alicdn.com/t/font_1031158_u69w8yhxdu.woff2?t=1630033759944") format("woff2"), url("//at.alicdn.com/t/font_1031158_u69w8yhxdu.woff?t=1630033759944") format("woff"), url("//at.alicdn.com/t/font_1031158_u69w8yhxdu.ttf?t=1630033759944") format("truetype"); }
</style></defs><path d="M673.613913 77.913043H257.335652c-31.610435 0-57.433043 25.822609-57.433043 57.433044v744.403478c0 31.610435 25.822609 57.433043 57.433043 57.433044h545.391305c31.610435 0 57.433043-25.822609 57.433043-57.433044V264.45913l-186.546087-186.546087z" fill="#E4EFF9" p-id="3968"></path><path d="M673.613913 207.026087c0 31.610435 25.822609 57.433043 57.433044 57.433043h129.113043l-186.546087-186.546087v129.113044z" fill="#52B4F7" p-id="3969"></path><path d="M470.594783 829.44H133.12c-17.363478 0-31.610435-13.356522-31.610435-29.829565V654.469565c0-16.473043 14.246957-29.829565 31.610435-29.829565h337.029565c17.363478 0 31.610435 13.356522 31.610435 29.829565v144.695652c0.445217 16.918261-13.801739 30.274783-31.165217 30.274783z" fill="#5395F4" p-id="3970"></path><path d="M179.422609 763.102609v30.274782H151.373913v-30.274782h28.048696zM272.918261 734.608696H225.28v26.267826c0 5.342609 0.445217 8.904348 1.335652 10.685217s2.226087 2.226087 4.452174 2.226087c2.671304 0 4.452174-0.890435 5.787826-3.116522s1.335652-6.233043 1.335652-12.020869v-16.027826h35.172174v8.904348c0 7.568696-0.445217 13.356522-1.335652 17.363478s-3.116522 8.45913-6.678261 12.911304-8.013913 8.013913-13.356522 10.24-12.02087 3.561739-20.034782 3.561739c-8.013913 0-14.692174-1.335652-20.48-3.561739s-10.685217-5.342609-13.801739-9.349565-5.787826-8.45913-6.678261-12.911304-1.78087-11.575652-1.78087-20.48v-35.172174c0-10.685217 1.335652-19.144348 4.452174-24.932174s7.568696-10.685217 14.246957-14.246957 13.801739-4.897391 22.260869-4.897391c10.24 0 18.69913 1.78087 25.822609 5.787826s11.575652 9.349565 14.246957 15.582609 4.006957 15.582609 4.006956 27.158261v16.027826z m-36.953044-19.589566v-8.904347c0-6.233043-0.445217-10.24-0.890434-12.02087s-2.226087-2.671304-4.006957-2.671304c-2.671304 0-4.006957 0.890435-4.897391 2.226087s-0.890435 5.787826-0.890435 12.466087v8.904347H235.965217zM358.4 672.278261l-14.692174 57.878261 17.808696 63.220869h-36.062609c-3.561739-16.027826-6.233043-29.829565-8.013913-41.405217-2.671304 14.246957-5.342609 28.048696-8.013913 41.405217h-30.72l16.027826-63.220869-16.027826-57.878261h30.72c4.897391 24.932174 7.568696 38.733913 8.013913 42.295652 3.561739-20.48 6.233043-34.726957 8.013913-42.295652h32.946087zM449.669565 734.608696H402.031304v26.267826c0 5.342609 0.445217 8.904348 1.335653 10.685217s2.226087 2.226087 4.452173 2.226087c2.671304 0 4.452174-0.890435 5.787827-3.116522s1.335652-6.233043 1.335652-12.020869v-16.027826H449.669565v8.904348c0 7.568696-0.445217 13.356522-1.335652 17.363478s-3.116522 8.45913-6.678261 12.911304-8.013913 8.013913-13.356522 10.24-12.02087 3.561739-20.034782 3.561739c-8.013913 0-14.692174-1.335652-20.48-3.561739s-10.685217-5.342609-13.801739-9.349565-5.787826-8.45913-6.678261-12.911304-1.78087-11.575652-1.78087-20.48v-35.172174c0-10.685217 1.335652-19.144348 4.452174-24.932174s7.568696-10.685217 14.246957-14.246957 13.801739-4.897391 22.260869-4.897391c10.24 0 18.69913 1.78087 25.822609 5.787826s11.575652 9.349565 14.246956 15.582609 4.006957 15.582609 4.006957 27.158261v16.027826z m-36.953043-19.589566v-8.904347c0-6.233043-0.445217-10.24-0.890435-12.02087s-2.226087-2.671304-4.006957-2.671304c-2.671304 0-4.006957 0.890435-4.897391 2.226087s-0.890435 5.787826-0.890435 12.466087v8.904347h10.685218z" fill="#FFFFFF" p-id="3971"></path><path d="M423.401739 501.314783c8.013913 4.897391 14.246957 1.78087 14.246957-8.013913V382.441739c0-9.349565-6.233043-19.144348-14.246957-23.596522L331.686957 301.857391c-8.013913-3.116522-14.246957 0-14.246957 8.013913v110.859131c0 9.349565 6.233043 19.144348 14.246957 23.596522l91.714782 56.987826zM345.933913 266.685217c-8.013913 4.897391-8.013913 11.130435 0 16.027826L436.313043 339.70087c8.013913 4.897391 19.144348 4.897391 26.713044 1.780869l90.37913-45.857391c8.013913-4.897391 8.013913-11.130435 0-16.027826L458.128696 222.163478c-6.233043-4.897391-19.144348-4.897391-26.713044 0l-85.481739 44.521739z m117.092174 227.06087c0 9.349565 6.233043 12.466087 14.246956 8.013913l90.379131-45.857391c8.013913-4.897391 14.246957-14.246957 14.246956-23.596522V320.556522c0-9.349565-6.233043-12.466087-14.246956-8.013913L477.273043 358.845217c-8.013913 4.897391-14.246957 14.246957-14.246956 23.596522v111.304348z m0 0" fill="#52B4F7" p-id="3972"></path></svg>