<?xml version="1.0" standalone="no"?><!DOCTYPE svg PUBLIC "-//W3C//DTD SVG 1.1//EN" "http://www.w3.org/Graphics/SVG/1.1/DTD/svg11.dtd"><svg t="1651104452997" class="icon" viewBox="0 0 1024 1024" version="1.1" xmlns="http://www.w3.org/2000/svg" p-id="3069" xmlns:xlink="http://www.w3.org/1999/xlink" width="128" height="128"><defs><style type="text/css">@font-face { font-family: feedback-iconfont; src: url("//at.alicdn.com/t/font_1031158_u69w8yhxdu.woff2?t=1630033759944") format("woff2"), url("//at.alicdn.com/t/font_1031158_u69w8yhxdu.woff?t=1630033759944") format("woff"), url("//at.alicdn.com/t/font_1031158_u69w8yhxdu.ttf?t=1630033759944") format("truetype"); }
</style></defs><path d="M704.77913 82.365217H288.50087c-31.610435 0-57.433043 25.822609-57.433044 57.433044v744.403478c0 31.610435 25.822609 57.433043 57.433044 57.433044h545.391304c31.610435 0 57.433043-25.822609 57.433043-57.433044V268.911304l-186.546087-186.546087z" fill="#D7F2ED" p-id="3070"></path><path d="M704.77913 211.478261c0 31.610435 25.822609 57.433043 57.433044 57.433043h129.113043l-186.546087-186.546087v129.113044z" fill="#63DBC4" p-id="3071"></path><path d="M501.76 833.892174H164.285217c-17.363478 0-31.610435-13.356522-31.610434-29.829565V658.921739c0-16.473043 14.246957-29.829565 31.610434-29.829565h337.029566c17.363478 0 31.610435 13.356522 31.610434 29.829565v144.695652c0.445217 16.918261-13.801739 30.274783-31.165217 30.274783z" fill="#09C6A2" p-id="3072"></path><path d="M215.930435 800.50087h-28.493913v-27.603479h28.493913v27.603479zM333.022609 799.610435h-32.50087l-21.370435-31.165218-22.260869 31.165218h-32.50087l34.726957-46.302609-32.055652-44.521739h30.72l21.370434 31.165217 20.48-31.165217h30.72l-32.946087 44.966956 35.617392 45.857392zM371.756522 798.72h-28.493913v-134.90087h28.493913v134.90087zM388.674783 787.144348v-17.363478c11.575652 8.904348 23.596522 13.801739 36.062608 14.692173 16.473043 1.335652 24.932174-2.226087 25.377392-10.24 0.890435-5.342609-5.342609-9.349565-17.808696-12.020869-7.123478-1.335652-13.801739-2.671304-20.034783-4.006957-13.801739-4.452174-20.925217-12.466087-21.370434-24.041739 0.890435-18.253913 13.801739-27.603478 39.624347-27.603478 24.041739-0.890435 39.17913 8.45913 44.966957 27.158261h-27.603478c-2.226087-5.787826-7.568696-8.904348-16.027826-8.904348-8.013913 0.445217-12.02087 3.116522-12.466087 8.45913-0.445217 4.452174 3.561739 7.123478 12.466087 8.904348l21.370434 5.342609c17.363478 4.452174 25.822609 13.801739 25.377392 27.603478 0.445217 17.363478-13.356522 26.267826-40.96 26.713044-19.589565 0.445217-36.062609-4.452174-48.973913-14.692174z" fill="#FFFFFF" p-id="3073"></path><path d="M446.553043 496.862609h62.775653c3.561739 0 6.678261-3.116522 6.678261-6.678261V427.408696c0-3.561739-3.116522-6.678261-6.678261-6.678261H446.553043c-3.561739 0-6.678261 3.116522-6.67826 6.678261v62.775652c0.445217 3.561739 3.116522 6.678261 6.67826 6.678261zM342.372174 392.236522H405.147826c3.561739 0 6.678261-3.116522 6.678261-6.678261V322.782609c0-3.561739-3.116522-6.678261-6.678261-6.678261H342.372174c-3.561739 0-6.678261 3.116522-6.678261 6.678261v63.220869c0 3.561739 3.116522 6.233043 6.678261 6.233044zM446.553043 392.236522h62.775653c3.561739 0 6.678261-3.116522 6.678261-6.678261V322.782609c0-3.561739-3.116522-6.678261-6.678261-6.678261H446.553043c-3.561739 0-6.678261 3.116522-6.67826 6.678261v63.220869c0.445217 3.561739 3.116522 6.233043 6.67826 6.233044zM405.147826 420.730435H342.372174c-3.561739 0-6.678261 3.116522-6.678261 6.678261v62.775652c0 3.561739 3.116522 6.678261 6.678261 6.678261H405.147826c3.561739 0 6.678261-3.116522 6.678261-6.678261V427.408696c0-3.561739-3.116522-6.678261-6.678261-6.678261zM551.17913 496.862609h62.775653c3.561739 0 6.678261-3.116522 6.67826-6.678261V427.408696c0-3.561739-3.116522-6.678261-6.67826-6.678261h-62.775653c-3.561739 0-6.678261 3.116522-6.67826 6.678261v62.775652c0 3.561739 3.116522 6.678261 6.67826 6.678261zM335.693913 218.156522v62.775652c0 3.561739 3.116522 6.678261 6.678261 6.678261H614.4c3.561739 0 6.678261-3.116522 6.678261-6.678261V218.156522c0-3.561739-3.116522-6.678261-6.678261-6.678261H342.372174c-3.561739 0.445217-6.678261 3.116522-6.678261 6.678261zM551.17913 392.236522h62.775653c3.561739 0 6.678261-3.116522 6.67826-6.678261V322.782609c0-3.561739-3.116522-6.678261-6.67826-6.678261h-62.775653c-3.561739 0-6.678261 3.116522-6.67826 6.678261v63.220869c0 3.561739 3.116522 6.233043 6.67826 6.233044z" fill="#63DBC4" p-id="3074"></path></svg>