<?xml version="1.0" standalone="no"?><!DOCTYPE svg PUBLIC "-//W3C//DTD SVG 1.1//EN" "http://www.w3.org/Graphics/SVG/1.1/DTD/svg11.dtd"><svg t="1651104485763" class="icon" viewBox="0 0 1024 1024" version="1.1" xmlns="http://www.w3.org/2000/svg" p-id="4415" xmlns:xlink="http://www.w3.org/1999/xlink" width="128" height="128"><defs><style type="text/css">@font-face { font-family: feedback-iconfont; src: url("//at.alicdn.com/t/font_1031158_u69w8yhxdu.woff2?t=1630033759944") format("woff2"), url("//at.alicdn.com/t/font_1031158_u69w8yhxdu.woff?t=1630033759944") format("woff"), url("//at.alicdn.com/t/font_1031158_u69w8yhxdu.ttf?t=1630033759944") format("truetype"); }
</style></defs><path d="M704.77913 82.365217H288.50087c-31.610435 0-57.433043 25.822609-57.433044 57.433044v744.403478c0 31.610435 25.822609 57.433043 57.433044 57.433044h545.391304c31.610435 0 57.433043-25.822609 57.433043-57.433044V268.911304l-186.546087-186.546087z" fill="#ECE2F7" p-id="4416"></path><path d="M704.77913 211.478261c0 31.610435 25.822609 57.433043 57.433044 57.433043h129.113043l-186.546087-186.546087v129.113044z" fill="#AAA4ED" p-id="4417"></path><path d="M501.76 833.892174H164.285217c-17.363478 0-31.610435-13.356522-31.610434-29.829565V658.921739c0-16.473043 14.246957-29.829565 31.610434-29.829565h337.029566c17.363478 0 31.610435 13.356522 31.610434 29.829565v144.695652c0.445217 16.918261-13.801739 30.274783-31.165217 30.274783z" fill="#876DF2" p-id="4418"></path><path d="M176.751304 767.554783v30.274782h-28.048695v-30.274782h28.048695zM223.053913 676.730435l-0.445217 11.575652c2.671304-4.452174 6.233043-8.013913 10.24-10.24s8.45913-3.561739 13.356521-3.561739c9.794783 0 17.808696 4.452174 23.151305 13.801739 3.116522-4.452174 6.678261-8.013913 10.685217-10.24s8.013913-3.561739 12.911304-3.561739c6.233043 0 11.575652 1.335652 15.582609 4.452174s6.678261 6.678261 8.013913 11.130435 1.78087 11.575652 1.78087 21.370434v85.926957h-35.617392v-78.803478c0-10.24-0.445217-16.918261-0.890434-19.144348s-2.226087-3.561739-4.897392-3.561739c-2.671304 0-4.452174 1.335652-4.897391 3.561739s-1.335652 8.904348-1.335652 19.144348v78.803478h-35.617391v-77.022609c0-12.02087-0.445217-19.144348-0.890435-21.370435s-2.226087-3.561739-4.897391-3.561739c-1.78087 0-3.116522 0.445217-4.006957 1.78087s-1.78087 2.671304-1.78087 4.452174v95.721739h-35.617391V676.730435h35.172174zM368.194783 676.730435l-0.445218 10.685217c3.116522-4.452174 7.123478-7.568696 10.685218-9.794782 4.006957-2.226087 8.45913-3.116522 12.911304-3.116522 5.787826 0 10.685217 1.335652 14.692174 4.452174s6.678261 6.678261 8.013913 10.685217 1.335652 10.685217 1.335652 20.48V761.321739c0 11.130435-0.445217 18.69913-1.780869 23.596522s-4.006957 8.45913-8.013914 11.130435-8.904348 4.006957-14.692173 4.006956c-4.452174 0-8.904348-0.890435-12.911305-3.116522-4.006957-2.226087-7.568696-5.342609-10.685217-9.349565v27.603478h-36.953044V676.730435h37.843479z m10.685217 35.172174c0-7.568696-0.445217-12.02087-0.890435-13.801739s-2.226087-2.226087-4.452174-2.226087-4.006957 0.890435-4.897391 2.671304-0.890435 6.233043-0.890435 13.356522v50.309565c0 7.123478 0.445217 12.02087 0.890435 13.801739s2.226087 2.671304 4.897391 2.671304c2.226087 0 4.006957-0.890435 4.452174-2.671304s0.890435-5.787826 0.890435-12.02087v-52.090434zM497.307826 714.128696c5.787826 1.78087 9.794783 4.897391 12.466087 9.349565 2.671304 4.452174 4.006957 14.246957 4.006957 30.274782 0 11.575652-1.335652 20.925217-4.006957 27.158261-2.671304 6.678261-7.123478 11.575652-13.801739 14.692174-6.678261 3.561739-15.137391 4.897391-25.377391 4.897392-11.575652 0-20.925217-1.78087-27.603479-5.787827s-11.130435-8.904348-13.356521-14.246956-3.116522-15.582609-3.116522-29.829565V739.06087h36.953043v24.041739c0 6.233043 0.445217 10.24 1.335653 12.020869s2.226087 2.671304 4.897391 2.671305c2.671304 0 4.897391-0.890435 5.787826-3.116522s1.335652-8.013913 1.335652-17.363478v-10.24c0-5.787826-0.445217-9.794783-1.780869-12.466087s-3.116522-4.452174-5.787827-5.342609-7.123478-1.335652-14.692173-1.335652v-21.370435c8.904348 0 14.246957-0.445217 16.473043-0.890435s3.561739-2.226087 4.452174-4.452174 1.335652-5.787826 1.335652-10.685217v-8.013913c0-5.342609-0.445217-8.45913-1.780869-10.24s-2.671304-2.671304-4.897392-2.671304c-2.671304 0-4.452174 0.890435-5.342608 2.671304s-1.335652 5.342609-1.335653 11.130435v12.020869h-36.953043v-12.466087c0-14.246957 3.116522-23.596522 9.794782-28.493913s16.918261-7.568696 30.72-7.568695c17.808696 0 29.384348 3.561739 35.617392 10.24s9.349565 16.473043 9.349565 28.493913c0 8.45913-1.335652 14.246957-3.561739 17.808695s-5.787826 7.568696-11.130435 10.685218z" fill="#FFFFFF" p-id="4419"></path><path d="M441.655652 407.81913m-100.173913 0a100.173913 100.173913 0 1 0 200.347826 0 100.173913 100.173913 0 1 0-200.347826 0Z" fill="#AAA4ED" p-id="4420"></path></svg>