<?xml version="1.0" standalone="no"?><!DOCTYPE svg PUBLIC "-//W3C//DTD SVG 1.1//EN" "http://www.w3.org/Graphics/SVG/1.1/DTD/svg11.dtd"><svg t="1651104470814" class="icon" viewBox="0 0 1024 1024" version="1.1" xmlns="http://www.w3.org/2000/svg" p-id="3820" xmlns:xlink="http://www.w3.org/1999/xlink" width="128" height="128"><defs><style type="text/css">@font-face { font-family: feedback-iconfont; src: url("//at.alicdn.com/t/font_1031158_u69w8yhxdu.woff2?t=1630033759944") format("woff2"), url("//at.alicdn.com/t/font_1031158_u69w8yhxdu.woff?t=1630033759944") format("woff"), url("//at.alicdn.com/t/font_1031158_u69w8yhxdu.ttf?t=1630033759944") format("truetype"); }
</style></defs><path d="M704.77913 82.365217H288.50087c-31.610435 0-57.433043 25.822609-57.433044 57.433044v744.403478c0 31.610435 25.822609 57.433043 57.433044 57.433044h545.391304c31.610435 0 57.433043-25.822609 57.433043-57.433044V268.911304l-186.546087-186.546087z" fill="#E5F3F9" p-id="3821"></path><path d="M704.77913 211.478261c0 31.610435 25.822609 57.433043 57.433044 57.433043h129.113043l-186.546087-186.546087v129.113044zM341.481739 216.375652h272.473044v38.288696H341.481739zM341.481739 300.966957h272.473044v38.288695H341.481739zM341.481739 385.558261h363.742609v38.288696H341.481739zM341.481739 469.704348h444.772174v38.288695H341.481739z" fill="#88D6F2" p-id="3822"></path><path d="M501.76 833.892174H164.285217c-17.363478 0-31.610435-13.356522-31.610434-29.829565V658.921739c0-16.473043 14.246957-29.829565 31.610434-29.829565h337.029566c17.363478 0 31.610435 13.356522 31.610434 29.829565v144.695652c0.445217 16.918261-13.801739 30.274783-31.165217 30.274783z" fill="#52BCF7" p-id="3823"></path><path d="M204.354783 767.554783v30.274782h-28.048696v-30.274782h28.048696zM297.850435 650.017391v147.812174h-36.953044v-8.904348c-3.561739 3.561739-7.123478 6.233043-11.130434 8.013913-4.006957 1.78087-8.013913 2.671304-12.02087 2.671305-5.787826 0-10.685217-1.335652-14.692174-4.452174s-6.678261-6.678261-8.013913-10.24-1.78087-10.24-1.78087-19.144348v-56.542609c0-9.349565 0.445217-16.027826 1.78087-20.034782s4.006957-7.123478 8.013913-10.24 9.349565-4.452174 15.137391-4.452174c4.452174 0 8.904348 0.890435 12.466087 2.671304s7.123478 4.006957 10.24 7.568696V650.017391h36.953044z m-36.507826 56.987826c0-4.452174-0.445217-7.568696-1.335652-8.904347s-2.226087-2.226087-4.452174-2.226087-3.561739 0.890435-4.452174 2.226087-1.335652 4.452174-1.335652 9.349565v59.213913c0 4.897391 0.445217 8.013913 0.890434 9.794782s2.226087 2.226087 4.006957 2.226087c2.226087 0 4.006957-0.890435 4.897391-2.671304s1.335652-5.787826 1.335652-12.911304v-56.097392zM394.907826 719.026087v29.829565c0 10.685217-0.445217 18.69913-1.780869 24.041739s-3.561739 9.794783-7.123479 14.246957-8.013913 7.568696-13.801739 9.794782-12.02087 3.116522-19.589565 3.116522c-8.013913 0-15.137391-0.890435-20.925217-2.671304s-10.24-4.452174-13.356522-8.013913-5.342609-8.013913-6.678261-13.356522-2.226087-12.911304-2.226087-23.151304v-31.165218c0-11.130435 1.335652-20.034783 3.561739-26.267826s6.678261-11.575652 13.356522-15.137391 14.246957-5.787826 24.486956-5.787826c8.45913 0 15.582609 1.335652 21.370435 3.561739s10.685217 5.787826 13.801739 9.794783 5.342609 8.013913 6.678261 12.020869 2.226087 10.685217 2.226087 19.144348z m-36.953043-8.904348c0-6.233043-0.445217-10.24-0.890435-11.575652s-2.226087-2.226087-4.452174-2.226087-3.561739 0.890435-4.452174 2.226087-0.890435 5.342609-0.890435 11.575652v54.761739c0 5.787826 0.445217 9.349565 0.890435 11.130435s2.226087 2.671304 4.452174 2.671304 3.561739-0.890435 4.452174-2.226087 0.890435-4.897391 0.890435-10.24v-56.097391zM488.403478 722.142609h-34.726956v-13.801739c0-4.897391-0.445217-8.013913-1.335652-9.794783s-2.226087-2.671304-4.452174-2.671304-3.561739 0.890435-4.452174 2.226087-0.890435 4.897391-0.890435 10.24v56.987826c0 4.452174 0.445217 7.568696 1.78087 9.794782s2.671304 3.116522 4.897391 3.116522c2.671304 0 4.006957-1.335652 4.897391-3.561739s1.335652-6.678261 1.335652-12.911304V747.965217h32.946087c0 9.794783-0.445217 16.918261-0.890435 21.815653s-2.671304 9.794783-6.233043 14.692173-8.013913 8.904348-13.356522 11.575653-12.466087 4.006957-20.48 4.006956c-10.24 0-18.69913-1.78087-24.932174-5.342609s-10.24-8.45913-12.911304-15.137391-4.006957-15.582609-4.006957-27.158261v-34.281739c0-10.24 0.890435-18.253913 3.116522-23.151304s6.678261-9.794783 13.356522-13.801739 15.137391-6.233043 24.486956-6.233044c9.794783 0 17.808696 2.226087 24.486957 6.233044s11.130435 9.349565 13.801739 15.582608 3.561739 14.246957 3.561739 25.377392z" fill="#FFFFFF" p-id="3824"></path></svg>