<?xml version="1.0" standalone="no"?><!DOCTYPE svg PUBLIC "-//W3C//DTD SVG 1.1//EN" "http://www.w3.org/Graphics/SVG/1.1/DTD/svg11.dtd"><svg t="1651102863367" class="icon" viewBox="0 0 1024 1024" version="1.1" xmlns="http://www.w3.org/2000/svg" p-id="1676" xmlns:xlink="http://www.w3.org/1999/xlink" width="128" height="128"><defs><style type="text/css">@font-face { font-family: feedback-iconfont; src: url("//at.alicdn.com/t/font_1031158_u69w8yhxdu.woff2?t=1630033759944") format("woff2"), url("//at.alicdn.com/t/font_1031158_u69w8yhxdu.woff?t=1630033759944") format("woff"), url("//at.alicdn.com/t/font_1031158_u69w8yhxdu.ttf?t=1630033759944") format("truetype"); }
</style></defs><path d="M704.77913 82.365217H288.50087c-31.610435 0-57.433043 25.822609-57.433044 57.433044v744.403478c0 31.610435 25.822609 57.433043 57.433044 57.433044h545.391304c31.610435 0 57.433043-25.822609 57.433043-57.433044V268.911304l-186.546087-186.546087z" fill="#F7E4E4" p-id="1677"></path><path d="M704.77913 211.478261c0 31.610435 25.822609 57.433043 57.433044 57.433043h129.113043l-186.546087-186.546087v129.113044z" fill="#F75757" p-id="1678"></path><path d="M501.76 833.892174H164.285217c-17.363478 0-31.610435-13.356522-31.610434-29.829565V658.921739c0-16.473043 14.246957-29.829565 31.610434-29.829565h337.029566c17.363478 0 31.610435 13.356522 31.610434 29.829565v144.695652c0.445217 16.918261-13.801739 30.274783-31.165217 30.274783z" fill="#F24949" p-id="1679"></path><path d="M222.608696 767.554783v30.274782h-28.048696v-30.274782H222.608696zM270.246957 676.730435l-0.445218 10.685217c3.116522-4.452174 7.123478-7.568696 10.685218-9.794782 4.006957-2.226087 8.45913-3.116522 12.911304-3.116522 5.787826 0 10.685217 1.335652 14.692174 4.452174s6.678261 6.678261 8.013913 10.685217 1.335652 10.685217 1.335652 20.48V761.321739c0 11.130435-0.445217 18.69913-1.78087 23.596522s-4.006957 8.45913-8.013913 11.130435-8.904348 4.006957-14.692174 4.006956c-4.452174 0-8.904348-0.890435-12.911304-3.116522s-7.568696-5.342609-10.685217-9.349565v27.603478h-36.953044V676.730435h37.843479z m10.24 35.172174c0-7.568696-0.445217-12.02087-0.890435-13.801739s-2.226087-2.226087-4.452174-2.226087-4.006957 0.890435-4.897391 2.671304-0.890435 6.233043-0.890435 13.356522v50.309565c0 7.123478 0.445217 12.02087 0.890435 13.801739s2.226087 2.671304 4.897391 2.671304c2.226087 0 4.006957-0.890435 4.452174-2.671304s0.890435-5.787826 0.890435-12.02087v-52.090434zM413.606957 650.017391v147.812174h-36.953044v-8.904348c-3.561739 3.561739-7.123478 6.233043-11.130435 8.013913s-8.013913 2.671304-12.020869 2.671305c-5.787826 0-10.685217-1.335652-14.692174-4.452174s-6.678261-6.678261-8.013913-10.24-1.78087-10.24-1.78087-19.144348v-56.542609c0-9.349565 0.445217-16.027826 1.78087-20.034782s4.006957-7.123478 8.013913-10.24 9.349565-4.452174 15.137391-4.452174c4.452174 0 8.904348 0.890435 12.466087 2.671304s7.123478 4.006957 10.24 7.568696V650.017391h36.953044z m-36.953044 56.987826c0-4.452174-0.445217-7.568696-1.335652-8.904347s-2.226087-2.226087-4.452174-2.226087-3.561739 0.890435-4.452174 2.226087-1.335652 4.452174-1.335652 9.349565v59.213913c0 4.897391 0.445217 8.013913 0.890435 9.794782s2.226087 2.226087 4.006956 2.226087c2.226087 0 4.006957-0.890435 4.897391-2.671304s1.335652-5.787826 1.335653-12.911304v-56.097392zM473.711304 650.017391v18.699131c-7.568696 0-12.02087 0.445217-13.356521 0.890435s-2.226087 2.671304-2.226087 5.787826v4.006956h15.582608v19.144348h-8.904347v99.283478h-36.953044v-99.283478h-7.568696v-19.144348h7.568696c0-8.013913 0.445217-13.356522 0.890435-16.027826s1.78087-4.897391 4.006956-7.123478 5.342609-3.561739 8.904348-4.897392 9.794783-1.78087 18.253913-1.780869h13.801739z" fill="#FFFFFF" p-id="1680"></path><path d="M587.241739 435.867826c-21.370435-1.78087-41.850435-9.349565-58.768696-23.596522-32.50087 7.123478-63.666087 17.363478-94.386086 30.274783-24.486957 43.631304-47.638261 65.892174-67.227827 65.892174-4.006957 0-8.904348-0.890435-12.020869-3.116522-8.904348-4.006957-13.356522-12.911304-13.356522-21.370435 0-7.123478 1.78087-27.158261 77.022609-59.65913 17.363478-31.610435 31.165217-64.111304 41.850435-98.393044-9.349565-19.144348-30.274783-65.892174-16.027826-89.488695 4.897391-8.904348 14.246957-13.356522 24.486956-12.911305 8.013913 0 16.027826 4.006957 20.48 10.24 10.24 14.246957 9.349565 44.521739-4.006956 89.043479 12.911304 23.596522 29.384348 45.412174 48.973913 63.666087 16.473043-3.116522 33.391304-5.342609 49.864347-5.342609 37.398261 0.890435 42.74087 18.253913 41.850435 28.493913 0.890435 26.267826-25.377391 26.267826-38.733913 26.267826zM365.078261 485.286957l2.226087-0.890435c11.130435-4.006957 20.034783-12.02087 26.267826-22.26087-12.02087 4.897391-21.370435 12.466087-28.493913 23.151305z m105.516522-238.191305h-2.226087c-0.890435 0-2.226087 0-3.116522 0.890435-3.116522 13.356522-0.890435 27.603478 4.897391 40.514783 4.452174-13.801739 4.452174-28.048696 0.445218-41.405218z m5.342608 114.866087l-0.890434 1.78087-0.890435-0.890435c-7.123478 18.253913-15.137391 36.507826-23.596522 53.871304l1.78087-0.890435v1.78087c17.363478-6.233043 36.507826-12.02087 53.871304-16.027826l-0.890435-0.890435h2.226087c-11.575652-11.575652-22.706087-24.932174-31.610435-38.733913z m108.187826 42.295652c-7.123478 0-13.356522 0-20.48 1.78087 8.013913 4.006957 16.027826 5.342609 23.596522 6.233043 5.342609 0.890435 11.130435 0 16.027826-1.780869 0-2.226087-3.116522-6.233043-19.144348-6.233044z m0 0" fill="#F75757" p-id="1681"></path></svg>