<?xml version="1.0" standalone="no"?><!DOCTYPE svg PUBLIC "-//W3C//DTD SVG 1.1//EN" "http://www.w3.org/Graphics/SVG/1.1/DTD/svg11.dtd"><svg t="1651104479006" class="icon" viewBox="0 0 1024 1024" version="1.1" xmlns="http://www.w3.org/2000/svg" p-id="4117" xmlns:xlink="http://www.w3.org/1999/xlink" width="128" height="128"><defs><style type="text/css">@font-face { font-family: feedback-iconfont; src: url("//at.alicdn.com/t/font_1031158_u69w8yhxdu.woff2?t=1630033759944") format("woff2"), url("//at.alicdn.com/t/font_1031158_u69w8yhxdu.woff?t=1630033759944") format("woff"), url("//at.alicdn.com/t/font_1031158_u69w8yhxdu.ttf?t=1630033759944") format("truetype"); }
</style></defs><path d="M704.77913 82.365217H288.50087c-31.610435 0-57.433043 25.822609-57.433044 57.433044v744.403478c0 31.610435 25.822609 57.433043 57.433044 57.433044h545.391304c31.610435 0 57.433043-25.822609 57.433043-57.433044V268.911304l-186.546087-186.546087z" fill="#F9EBE1" p-id="4118"></path><path d="M704.77913 211.478261c0 31.610435 25.822609 57.433043 57.433044 57.433043h129.113043l-186.546087-186.546087v129.113044z" fill="#FC974C" p-id="4119"></path><path d="M501.76 833.892174H164.285217c-17.363478 0-31.610435-13.356522-31.610434-29.829565V658.921739c0-16.473043 14.246957-29.829565 31.610434-29.829565h337.029566c17.363478 0 31.610435 13.356522 31.610434 29.829565v144.695652c0.445217 16.918261-13.801739 30.274783-31.165217 30.274783z" fill="#E56B07" p-id="4120"></path><path d="M206.58087 767.554783v30.274782h-28.048696v-30.274782h28.048696zM300.076522 739.06087H251.993043v26.267826c0 5.342609 0.445217 8.904348 1.335653 10.685217s2.226087 2.226087 4.452174 2.226087c2.671304 0 4.452174-0.890435 5.787826-3.116522s1.335652-6.233043 1.335652-12.020869v-16.027826h35.172174v8.904347c0 7.568696-0.445217 13.356522-1.335652 17.363479s-3.116522 8.45913-6.678261 12.911304-8.013913 8.013913-13.356522 10.24-12.02087 3.561739-20.034783 3.561739c-8.013913 0-14.692174-1.335652-20.48-3.561739s-10.685217-5.342609-13.801739-9.349565-5.787826-8.45913-6.678261-12.911305-1.78087-11.575652-1.780869-20.48v-35.172173c0-10.685217 1.335652-19.144348 4.452174-24.932174s7.568696-10.685217 14.246956-14.246957 13.801739-4.897391 22.26087-4.897391c10.24 0 18.69913 1.78087 25.822608 5.787826s11.575652 9.349565 14.246957 15.582609 4.006957 15.582609 4.006957 27.15826v16.027827z m-36.953044-19.589566v-8.904347c0-6.233043-0.445217-10.24-0.890435-12.02087s-2.226087-2.671304-4.006956-2.671304c-2.671304 0-4.006957 0.890435-4.897391 2.226087s-0.890435 5.787826-0.890435 12.466087v8.904347h10.685217zM349.495652 676.730435l-0.445217 10.685217c3.116522-4.452174 7.123478-7.568696 10.685217-9.794782 4.006957-2.226087 8.45913-3.116522 12.911305-3.116522 5.787826 0 10.685217 1.335652 14.692173 4.452174s6.678261 6.678261 8.013913 10.685217 1.335652 10.685217 1.335653 20.48V761.321739c0 11.130435-0.445217 18.69913-1.78087 23.596522s-4.006957 8.45913-8.013913 11.130435-8.904348 4.006957-14.692174 4.006956c-4.452174 0-8.904348-0.890435-12.911304-3.116522s-7.568696-5.342609-10.685218-9.349565v27.603478H311.652174V676.730435h37.843478z m10.685218 35.172174c0-7.568696-0.445217-12.02087-0.890435-13.801739s-2.226087-2.226087-4.452174-2.226087-4.006957 0.890435-4.897391 2.671304-0.890435 6.233043-0.890435 13.356522v50.309565c0 7.123478 0.445217 12.02087 0.890435 13.801739s2.226087 2.671304 4.897391 2.671304c2.226087 0 4.006957-0.890435 4.452174-2.671304s0.890435-5.787826 0.890435-12.02087v-52.090434zM484.396522 715.01913h-32.50087v-6.67826c0-5.787826-0.445217-9.349565-0.890435-10.685218s-2.226087-2.226087-4.897391-2.226087c-2.226087 0-3.561739 0.890435-4.452174 2.226087s-1.335652 3.561739-1.335652 6.233044c0 3.561739 0.445217 6.233043 0.890435 8.013913s2.226087 3.561739 4.452174 5.787826 8.013913 4.897391 16.027826 8.904348c10.685217 5.342609 17.808696 10.24 20.925217 14.692174s4.897391 11.130435 4.897391 20.034782c0 9.794783-1.335652 17.363478-4.006956 22.26087s-6.678261 8.904348-12.911304 11.575652-13.356522 4.006957-21.815653 4.006956c-9.349565 0-17.363478-1.335652-24.041739-4.452174s-11.130435-6.678261-13.801739-12.020869-3.561739-12.466087-3.561739-22.706087v-5.787826h32.50087v7.568696c0 6.678261 0.445217 10.685217 1.335652 12.911304s2.226087 3.116522 4.897391 3.116522c2.671304 0 4.452174-0.445217 5.342609-1.78087s1.335652-4.006957 1.335652-8.45913c0-5.787826-0.890435-9.349565-2.226087-10.685218-1.335652-1.335652-8.45913-5.787826-21.370435-12.911304-10.685217-6.233043-17.363478-11.575652-20.034782-16.473044s-3.561739-10.685217-3.56174-17.808695c0-9.794783 1.335652-16.918261 4.006957-21.370435s6.678261-8.013913 12.911304-10.685217 13.356522-3.561739 21.370435-3.56174c8.013913 0 14.692174 0.890435 20.48 3.116522s9.794783 4.897391 12.911304 8.013913 4.897391 6.233043 5.342609 9.349565 0.890435 7.123478 0.890435 13.356522v7.123478z" fill="#FFFFFF" p-id="4121"></path><path d="M427.853913 315.65913L356.173913 467.923478l13.356522 13.356522 89.043478-89.043478c-3.116522-7.123478-2.226087-16.027826 4.006957-21.815652 7.568696-7.568696 19.589565-7.568696 27.603478 0 8.013913 7.568696 7.568696 19.589565 0 27.603478-6.233043 6.233043-14.692174 7.123478-21.815652 4.006956l-89.043479 88.598261 13.356522 13.356522L545.391304 431.86087l32.055653-91.269566-58.323479-57.878261-91.269565 32.946087z m209.252174-18.253913l-74.351304-74.351304c-6.233043-6.233043-16.027826-6.233043-21.815653 0L523.575652 240.417391c-6.233043 6.233043-6.233043 16.027826 0 21.815652l73.906087 73.906087c6.233043 6.233043 16.027826 6.233043 21.815652 0l17.363479-17.363478c6.233043-5.342609 6.233043-15.137391 0.445217-21.370435z m0 0" fill="#FC974C" p-id="4122"></path></svg>